<svg xmlns="http://www.w3.org/2000/svg" version="1.1" xmlns:xlink="http://www.w3.org/1999/xlink" width="512" height="512" x="0" y="0" viewBox="0 0 256 256" style="enable-background:new 0 0 512 512" xml:space="preserve" class=""><g><path fill="#582013" d="M47.33 99.107 27.749 79.218c.764-.752 18.966-18.565 40.19-30.102 23.702-12.884 41.67-15.726 42.424-15.841l4.202 27.592.069-.01c-.14.022-14.28 2.406-33.366 12.781-17.81 9.681-33.779 25.312-33.938 25.47z" opacity="1" data-original="#582013" class=""></path><path fill="#8c321a" d="M232.392 70.85a15.824 15.824 0 0 0-30.86 4.928l-.053-12.657a15.821 15.821 0 0 0-31.643 0l-.053-12.657a15.82 15.82 0 0 0-31.062-4.241v-8.416a15.821 15.821 0 0 0-31.643 0l.11 77.635v17.73c0 8.738-5.185 15.822-13.923 15.822h-1.899c-8.738 0-13.026-7.066-15.821-15.821L61.618 85.51a19.881 19.881 0 0 0-38.39 10.36l23.59 83.3c4.594 16.976 22.48 32.728 44.145 33.171 0 0 5.317 25.253 31.412 25.253h56.97c17.476 0 31.643-17.516 31.643-34.992 0 0 14.894-1.588 22.526-65.692 4.746-39.867.266-61.757-1.122-66.06z" opacity="1" data-original="#8c321a" class=""></path><path d="m234.77 70.083-.002-.01a18.315 18.315 0 0 0-30.789-6.804v-.148a18.313 18.313 0 0 0-31.695-12.511v-.146a18.31 18.31 0 0 0-31.07-13.143 18.308 18.308 0 0 0-35.557-5.645 132.13 132.13 0 0 0-13.574 3.976l-4.063-3.426a2.5 2.5 0 1 0-3.223 3.822l1.891 1.595q-3.11 1.21-6.52 2.697l-5.172-4.398a2.5 2.5 0 1 0-3.239 3.81l3.393 2.884q-3.031 1.445-6.222 3.117l-5.184-4.407a2.5 2.5 0 1 0-3.239 3.808l3.729 3.17q-2.685 1.537-5.287 3.173l-5.444-4.592a2.5 2.5 0 1 0-3.223 3.823l4.291 3.619q-2.619 1.76-5.091 3.545l-5.673-4.785a2.5 2.5 0 1 0-3.222 3.823l4.766 4.02a231.647 231.647 0 0 0-10.935 8.84 22.379 22.379 0 0 0-13.593 26.763l23.582 83.272C48.783 196 65.812 213.422 89.05 214.769c1.96 6.198 9.91 25.326 33.325 25.326h56.97c17.65 0 33.194-16.494 34.1-35.72 5.103-2.613 16.271-14.418 22.551-67.169 5.445-45.736-1.158-66.915-1.226-67.123zm-130.084 44.73a150.26 150.26 0 0 0-10.305 5.105c-.395.214-.787.435-1.18.655l-4.143-20.979a141.279 141.279 0 0 1 15.597-7.24zm.001 5.501v12.859c0 5.068-2.072 10.161-6.57 12.285l-3.893-19.712c.844-.49 1.691-.972 2.545-1.436a145.37 145.37 0 0 1 7.919-3.995zm-20.209-18.107 4.16 21.06c-3.95 2.45-7.717 5.077-11.15 7.645l-5.835-19.968a148.853 148.853 0 0 1 12.825-8.737zm-14.323 3.61L64.8 87.486A147.297 147.297 0 0 1 79.59 77.46l3.86 19.545a146.735 146.735 0 0 0-13.295 8.811zm19.522 22.707 3.55 17.97h-1.86c-5.48 0-9.241-3.219-12.194-10.582 3.217-2.456 6.768-4.994 10.504-7.388zM104.647 87a144.47 144.47 0 0 0-16.602 7.467l-3.863-19.552a135.98 135.98 0 0 1 20.436-8.771zM49.265 64.25l4.102 3.46a2.5 2.5 0 0 0 3.223-3.822l-3.17-2.673a179.817 179.817 0 0 1 5.128-3.515l4.514 3.808a2.5 2.5 0 1 0 3.223-3.823l-3.32-2.8q2.62-1.607 5.329-3.11l5.572 4.738a2.5 2.5 0 0 0 3.239-3.809l-4.059-3.45q3.235-1.654 6.288-3.061l5.784 4.916a2.5 2.5 0 0 0 3.238-3.808l-3.937-3.347c2.327-.98 4.55-1.86 6.633-2.63l6.527 5.504a2.5 2.5 0 1 0 3.223-3.822l-4.257-3.59c3.163-1.03 5.88-1.793 8.07-2.348-.01.249-.037.493-.037.744l.033 23.073A137.363 137.363 0 0 0 63.209 82.42a22.297 22.297 0 0 0-19.264-14.045c1.67-1.336 3.448-2.72 5.32-4.125zm181.766 72.364c-6.81 57.207-19.302 63.097-20.395 63.502a2.143 2.143 0 0 0-1.558.704 2.353 2.353 0 0 0-.59 1.782 35.422 35.422 0 0 1-10.493 24.354v-15.528a2.5 2.5 0 0 0-5 0v19.536a25.42 25.42 0 0 1-11.746 4.047v-23.583a2.5 2.5 0 0 0-5 0v23.667h-11.747v-23.667a2.5 2.5 0 0 0-5 0v23.667h-11.746v-23.667a2.5 2.5 0 0 0-5 0v23.667H131.01v-23.667a2.5 2.5 0 1 0-5 0v23.667h-3.635a32.405 32.405 0 0 1-8.148-.993 2.477 2.477 0 0 0 .037-.366v-22.308a2.5 2.5 0 0 0-5 0V232.3c-12.581-6.02-15.697-19.737-15.855-20.474a2.499 2.499 0 0 0-2.395-1.984 44.695 44.695 0 0 1-3.915-.254 2.474 2.474 0 0 0-.886-.988 41.917 41.917 0 0 1-9.163-8.09 2.5 2.5 0 1 0-3.781 3.272 54.793 54.793 0 0 0 3.023 3.218c-14.089-5.317-24.018-17.24-27.068-28.512L25.643 95.22a17.379 17.379 0 0 1 12.25-21.31 17.457 17.457 0 0 1 4.558-.608 17.198 17.198 0 0 1 6.673 1.351 22.226 22.226 0 0 0-8.823 6.88 2.5 2.5 0 1 0 3.963 3.048 17.301 17.301 0 0 1 9.286-6.202 2.478 2.478 0 0 0 .753-.358 17.34 17.34 0 0 1 4.915 8.19l13.945 47.723c2.408 7.538 6.914 17.56 18.203 17.56h1.899a16.296 16.296 0 0 0 7.068-1.559 2.47 2.47 0 0 0 1.124.28c.03 0 .062 0 .092-.002 4.1-.145 8.089-.163 11.827-.044a2.465 2.465 0 0 0 2.578-2.42 2.5 2.5 0 0 0-2.42-2.578 173.144 173.144 0 0 0-7.407-.062 20.1 20.1 0 0 0 3.56-11.936v-17.736l-.11-77.63a13.321 13.321 0 1 1 26.643 0v8.415a2.492 2.492 0 0 0 .155.859 2.49 2.49 0 0 0-.045.448v6.809l-1.143-1.143a2.5 2.5 0 0 0-3.535 3.535l4.678 4.678v1.764l-4.678 4.678a2.5 2.5 0 1 0 3.536 3.535l1.142-1.142v46.91a2.5 2.5 0 0 0 5 0V66.409l4.977 4.977a2.5 2.5 0 1 0 3.535-3.535l-5.56-5.56 5.56-5.56a2.5 2.5 0 0 0-3.535-3.536l-4.977 4.978V47.529a2.478 2.478 0 0 0-.145-.808 13.317 13.317 0 0 1 26.098 3.754l.053 12.657a2.502 2.502 0 0 0 .056.515v7.046l-2.034-2.034a2.5 2.5 0 0 0-3.535 3.535l5.56 5.56-5.56 5.56a2.5 2.5 0 1 0 3.535 3.536l2.034-2.035v39.301a2.5 2.5 0 0 0 5 0V82.764l4.085 4.085a2.5 2.5 0 0 0 3.536-3.536l-5.56-5.56 5.56-5.56a2.5 2.5 0 0 0-3.536-3.535l-4.085 4.085v-10.74a13.316 13.316 0 0 1 26.586 1.129l.054 12.657a2.473 2.473 0 0 0 .108.68v5.891l-2.941-2.942a2.5 2.5 0 0 0-3.535 3.536l5.56 5.56-5.56 5.56a2.5 2.5 0 1 0 3.535 3.535l2.941-2.942v35.777a2.5 2.5 0 0 0 5 0V94.43l3.178 3.178a2.5 2.5 0 0 0 3.535-3.535l-5.56-5.56 5.56-5.56a2.5 2.5 0 0 0-3.535-3.536l-3.178 3.178V74.16a13.232 13.232 0 0 1 2.407-6.141c.067.005.131.02.2.02 3.902 0 6.612 1.615 8.284 4.938a2.5 2.5 0 0 0 4.467-2.248 13.387 13.387 0 0 0-7.898-6.947 13.285 13.285 0 0 1 18.414 7.841c1.78 5.52 5.428 27.94 1.017 64.991z" fill="#000000" opacity="1" data-original="#000000" class=""></path><path d="M219.352 139.799a2.5 2.5 0 0 0-2.803 2.154 306.26 306.26 0 0 1-1.93 12.74 2.5 2.5 0 1 0 4.926.858 310.564 310.564 0 0 0 1.96-12.95 2.499 2.499 0 0 0-2.153-2.802zM218.936 99.503a2.5 2.5 0 0 0 2.497 2.395c.035 0 .07 0 .106-.002a2.5 2.5 0 0 0 2.394-2.602 120.333 120.333 0 0 0-1.21-13.216 2.5 2.5 0 0 0-4.942.766 115.06 115.06 0 0 1 1.156 12.659zM205.4 193.682a2.5 2.5 0 0 0-3.455.756c-3.937 6.149-6.915 6.801-6.944 6.807a2.509 2.509 0 0 1 2.562 1.296l-2.206 1.178-.293 2.482a1.846 1.846 0 0 0 .23.013c1.607 0 6.049-1.564 10.862-9.078a2.502 2.502 0 0 0-.757-3.454zM221.532 111.897a2.516 2.516 0 0 0-2.587 2.409c-.145 4.107-.41 8.43-.787 12.851a2.5 2.5 0 0 0 2.28 2.703c.072.006.143.01.214.01a2.5 2.5 0 0 0 2.489-2.289c.382-4.502.652-8.91.8-13.098a2.5 2.5 0 0 0-2.409-2.587zM214.633 167.363a2.501 2.501 0 0 0-3.027 1.827c-1.103 4.462-2.314 8.574-3.6 12.22a2.5 2.5 0 0 0 1.527 3.188 2.473 2.473 0 0 0 .83.143 2.5 2.5 0 0 0 2.358-1.67c1.34-3.797 2.597-8.063 3.739-12.681a2.499 2.499 0 0 0-1.827-3.027zM43.983 108.951 41.24 99.79a17.655 17.655 0 0 1-.53-2.9 2.5 2.5 0 0 0-4.976.48 22.77 22.77 0 0 0 .697 3.788l2.763 9.226a2.5 2.5 0 1 0 4.79-1.433zM52.015 135.774l-3.729-12.454a2.5 2.5 0 1 0-4.789 1.434l3.729 12.454a2.5 2.5 0 1 0 4.789-1.434zM64.368 177.031l-4.826 1.308a63.367 63.367 0 0 0 5.026 12.555 2.5 2.5 0 1 0 4.43-2.319 58.368 58.368 0 0 1-4.63-11.544zM60.047 162.598l-3.73-12.454a2.5 2.5 0 1 0-4.789 1.433l3.73 12.454a2.5 2.5 0 0 0 2.393 1.785 2.473 2.473 0 0 0 .718-.107 2.498 2.498 0 0 0 1.678-3.111zM162.59 157.886a82.685 82.685 0 0 0-11.085-5.456 2.5 2.5 0 0 0-1.87 4.636 77.645 77.645 0 0 1 10.414 5.126 2.5 2.5 0 1 0 2.541-4.306zM138.788 148.38a111.116 111.116 0 0 0-12.067-2.194 2.5 2.5 0 0 0-.63 4.96 105.714 105.714 0 0 1 11.521 2.093 2.5 2.5 0 0 0 1.176-4.859zM196.252 192.74a137.892 137.892 0 0 0-5.484-8.283 2.5 2.5 0 1 0-4.063 2.914 133.896 133.896 0 0 1 5.285 7.982 2.5 2.5 0 1 0 4.262-2.614zM173.522 165.606a2.5 2.5 0 1 0-3.204 3.84 87.467 87.467 0 0 1 8.414 8.057 2.5 2.5 0 0 0 3.686-3.379 92.587 92.587 0 0 0-8.897-8.518z" fill="#000000" opacity="1" data-original="#000000" class=""></path></g></svg>